{
    "asset" : {
        "generator" : "Khronos glTF Blender I/O v1.7.33",
        "version" : "2.0"
    },
    "scene" : 0,
    "scenes" : [
        {
            "name" : "Scene",
            "nodes" : [
                0
            ]
        }
    ],
    "nodes" : [
        {
            "mesh" : 0,
            "name" : "Cube",
            "rotation" : [
                0,
                -0.9993641376495361,
                0,
                0.03565576300024986
            ],
            "scale" : [
                14.264561653137207,
                3.592292070388794,
                8.063920021057129
            ],
            "translation" : [
                -1.660252332687378,
                3.6564085483551025,
                0.024180447682738304
            ]
        }
    ],
    "materials" : [
        {
            "doubleSided" : true,
            "name" : "cottage_texture",
            "pbrMetallicRoughness" : {
                "baseColorFactor" : [
                    0.800000011920929,
                    0.800000011920929,
                    0.800000011920929,
                    1
                ],
                "roughnessFactor" : 0.5527864098548889
            }
        }
    ],
    "meshes" : [
        {
            "name" : "Cube.002",
            "primitives" : [
                {
                    "attributes" : {
                        "POSITION" : 0,
                        "NORMAL" : 1,
                        "TEXCOORD_0" : 2
                    },
                    "indices" : 3,
                    "material" : 0
                }
            ]
        }
    ],
    "accessors" : [
        {
            "bufferView" : 0,
            "componentType" : 5126,
            "count" : 670,
            "max" : [
                1.2217717170715332,
                3.084787368774414,
                1.1487441062927246
            ],
            "min" : [
                -1.148742437362671,
                -1.0000001192092896,
                -1.165095329284668
            ],
            "type" : "VEC3"
        },
        {
            "bufferView" : 1,
            "componentType" : 5126,
            "count" : 670,
            "type" : "VEC3"
        },
        {
            "bufferView" : 2,
            "componentType" : 5126,
            "count" : 670,
            "type" : "VEC2"
        },
        {
            "bufferView" : 3,
            "componentType" : 5123,
            "count" : 1434,
            "type" : "SCALAR"
        }
    ],
    "bufferViews" : [
        {
            "buffer" : 0,
            "byteLength" : 8040,
            "byteOffset" : 0
        },
        {
            "buffer" : 0,
            "byteLength" : 8040,
            "byteOffset" : 8040
        },
        {
            "buffer" : 0,
            "byteLength" : 5360,
            "byteOffset" : 16080
        },
        {
            "buffer" : 0,
            "byteLength" : 2868,
            "byteOffset" : 21440
        }
    ],
    "buffers" : [
        {
            "byteLength" : 24308,
            "uri" : "data:application/octet-stream;base64,"
        }
    ]
}
